# xmcd
#
# Track frame offsets: 
#        182
#        22220
#        39062
#        58822
#        84580
#        127492
#        149372
#        178960
#
# Disc length: 2852 seconds
#
# Revision: 3
# Processed by: cddbd v1.5.2PL0 Copyright (c) Steve Scherf et al.
# Submitted via: ExactAudioCopy v0.99pb4
#
DISCID=780b2208
DTITLE=Michel Jonasz - La fabuleuse histoire de Mister Swing - CD1
DYEAR=1988
DGENRE=Swing
TTITLE0=In the morning
TTITLE1=Mister Swing
TTITLE2=La chanson du producteur
TTITLE3=La chanson du compositeur
TTITLE4=La chanson des musiciens
TTITLE5=Je t'aime
TTITLE6=Poussy
TTITLE7=Fifty fifty
EXTD=
EXTT0=
EXTT1=
EXTT2=
EXTT3=
EXTT4=
EXTT5=
EXTT6=
EXTT7=
PLAYORDER=
